<?xml version="1.0" encoding="UTF-8"?>
<svg version="1.1" xmlns="http://www.w3.org/2000/svg" width="250" height="250" viewBox="0 0 250 250" role="img" aria-label="Lambang PMII">
<path d="M0 0 C48.18 0 96.36 0 146 0 C146.99 4.62 147.98 9.24 149 14 C150.15200128 17.31807022 151.31694316 20.47266808 152.6875 23.6875 C153.03200195 24.52563232 153.37650391 25.36376465 153.73144531 26.22729492 C155.49462953 30.49738181 157.31702776 34.74046819 159.16015625 38.9765625 C166.84658176 56.69710556 172.95778136 73.85953732 166 93 C158.96006881 108.11063112 146.85932861 115.08773729 131.76953125 120.58984375 C125.33427485 122.8224688 118.82140401 124.77228007 112.2734375 126.64453125 C98.04485386 130.74973939 85.34535677 135.13892298 74 145 C69.84658528 143.0437513 66.14832469 140.49775111 62.33984375 137.94921875 C51.53146511 131.64117087 39.93540161 128.41023943 27.98364258 125.02856445 C13.83166618 121.00196714 -1.8188036 116.22414822 -12 105 C-12.54914062 104.39671875 -13.09828125 103.7934375 -13.6640625 103.171875 C-21.90968018 93.17964865 -23.92053831 80.58971507 -23 68 C-21.18409482 57.17818669 -16.77273876 47.46937308 -12.38671875 37.5 C-9.98084823 32.00759278 -7.73010625 26.46540774 -5.5625 20.875 C-5.0679834 19.63339111 -5.0679834 19.63339111 -4.56347656 18.36669922 C-2.16496864 12.11228279 -1.24214024 6.83177133 0 0 Z " fill="#0972D4" transform="translate(52,92)"/>
<path d="M0 0 C3.63714555 1.6319412 6.61485314 3.88494799 9.8125 6.25 C31.48606374 21.57692256 60.77062382 23.22628752 86.3125 18.875 C99.96004905 16.18120715 111.25063615 10.29635813 122 1.5625 C124 0 124 0 126 0 C126.47308594 1.03898438 126.94617188 2.07796875 127.43359375 3.1484375 C133.55296305 16.21051514 140.63025505 25.20112114 153 33 C152.49210938 33.93199219 151.98421875 34.86398438 151.4609375 35.82421875 C142.48248588 52.26094806 142.48248588 52.26094806 136.54296875 69.953125 C136 72 136 72 135 73 C133.13971966 73.09650437 131.27572971 73.12187292 129.41294861 73.12025452 C128.19993576 73.12162918 126.98692291 73.12300385 125.7371521 73.12442017 C124.38067603 73.12088056 123.0242002 73.11724575 121.66772461 73.11352539 C120.24887596 73.11324352 118.83002716 73.11340124 117.41117859 73.1139679 C113.54771199 73.11425589 109.68427617 73.1083589 105.82081676 73.10139394 C101.78757427 73.09516067 97.75433115 73.09455662 93.72108459 73.09336853 C86.07834532 73.09025514 78.43562027 73.08204164 70.79288727 73.07201904 C62.09411981 73.06085816 53.39535169 73.05534752 44.69657886 73.05032361 C26.79771116 73.03985903 8.89885672 73.02225943 -9 73 C-9.2041452 72.38402954 -9.40829041 71.76805908 -9.61862183 71.13342285 C-9.88740143 70.32433472 -10.15618103 69.51524658 -10.43310547 68.68164062 C-10.69912567 67.88004517 -10.96514587 67.07844971 -11.23922729 66.25256348 C-14.27236877 57.27176847 -18.46929031 48.96869764 -23.05322266 40.69921875 C-23.43397949 40.003125 -23.81473633 39.30703125 -24.20703125 38.58984375 C-24.5522583 37.96972412 -24.89748535 37.34960449 -25.25317383 36.71069336 C-26 35 -26 35 -26 32 C-23.83984375 30.23828125 -23.83984375 30.23828125 -20.9375 28.3125 C-10.16602958 20.66778634 -5.47901694 11.72651937 0 0 Z " fill="#FECA06" transform="translate(62,13)"/>
<path d="M0 0 C1.98 0 3.96 0 6 0 C9.3 9.57 12.6 19.14 16 29 C18.50154801 22.33731485 18.50154801 22.33731485 20.82421875 15.625 C21.28344727 14.24248047 21.28344727 14.24248047 21.75195312 12.83203125 C22.06068359 11.89746094 22.36941406 10.96289062 22.6875 10 C23.00783203 9.03449219 23.32816406 8.06898437 23.65820312 7.07421875 C24.44018549 4.71660028 25.22075345 2.35852383 26 0 C28.31 0 30.62 0 33 0 C34.12995779 5.47509278 35.25056999 10.95199058 36.36303711 16.43066406 C36.74173822 18.2892448 37.12286712 20.14733274 37.5065918 22.00488281 C39.5732397 32.01748204 41.46482809 41.77227008 42 52 C38.7 52 35.4 52 32 52 C31.72285156 50.50726563 31.44570312 49.01453125 31.16015625 47.4765625 C30.79442806 45.52601218 30.42853407 43.57549294 30.0625 41.625 C29.88009766 40.64015625 29.69769531 39.6553125 29.50976562 38.640625 C29.33251953 37.69960937 29.15527344 36.75859375 28.97265625 35.7890625 C28.81031494 34.91975098 28.64797363 34.05043945 28.48071289 33.15478516 C28.0834101 30.96537634 28.0834101 30.96537634 27 29 C24.36 36.59 21.72 44.18 19 52 C17.35 52 15.7 52 14 52 C12.87255207 49.12595407 11.74848857 46.25059574 10.625 43.375 C10.30789062 42.56675781 9.99078125 41.75851563 9.6640625 40.92578125 C9.3546875 40.13300781 9.0453125 39.34023437 8.7265625 38.5234375 C8.44377441 37.80075684 8.16098633 37.07807617 7.86962891 36.33349609 C6.84367987 33.58054244 5.92904926 30.78714778 5 28 C3.35 35.92 1.7 43.84 0 52 C-3.3 52 -6.6 52 -10 52 C-8.56831549 42.0543261 -6.78828955 32.19104133 -4.91333008 22.32104492 C-4.43118317 19.77919808 -3.95469899 17.23632939 -3.47851562 14.69335938 C-3.17221202 13.07285293 -2.86558378 11.4524078 -2.55859375 9.83203125 C-2.41691269 9.07380569 -2.27523163 8.31558014 -2.1292572 7.53437805 C-1.11471406 2.22942812 -1.11471406 2.22942812 0 0 Z " fill="#271AAA" transform="translate(110,105)"/>
<path d="M0 0 C25.85743381 0 25.85743381 0 32.97265625 6.91796875 C35.46064543 11.96016736 34.92003481 18.98519668 33.30859375 24.265625 C31.08634475 28.54275696 28.36877612 31.11690684 24 33 C19.27867425 33.32142954 14.74366916 33.17900638 10 33 C10 39.27 10 45.54 10 52 C6.7 52 3.4 52 0 52 C0 34.84 0 17.68 0 0 Z " fill="#2818A9" transform="translate(63,105)"/>
<path d="M0 0 C3.63 0 7.26 0 11 0 C11 17.16 11 34.32 11 52 C7.37 52 3.74 52 0 52 C0 34.84 0 17.68 0 0 Z " fill="#271BAB" transform="translate(157,105)"/>
<path d="M0 0 C3.3 0 6.6 0 10 0 C10 17.16 10 34.32 10 52 C6.7 52 3.4 52 0 52 C0 34.84 0 17.68 0 0 Z " fill="#2817A9" transform="translate(177,105)"/>
<path d="M0 0 C0.66 0 1.32 0 2 0 C2.99 2.97 3.98 5.94 5 9 C8.3 9.33 11.6 9.66 15 10 C12.74259377 12.33524782 10.7194239 14.18705073 8 16 C8.66 19.3 9.32 22.6 10 26 C8.4221875 24.9790625 8.4221875 24.9790625 6.8125 23.9375 C4.28853835 22.50250568 3.27649697 21.99356984 0.3125 22.0625 C-2.15389081 23.06238817 -3.92358474 24.35318789 -6 26 C-6.66 26 -7.32 26 -8 26 C-7.46228519 22.62007831 -6.85696068 19.31262111 -6 16 C-6.5053125 15.65066406 -7.010625 15.30132812 -7.53125 14.94140625 C-8.1809375 14.48636719 -8.830625 14.03132813 -9.5 13.5625 C-10.1496875 13.11003906 -10.799375 12.65757813 -11.46875 12.19140625 C-12.22671875 11.60166016 -12.22671875 11.60166016 -13 11 C-13 10.67 -13 10.34 -13 10 C-9.7 9.67 -6.4 9.34 -3 9 C-2.01 6.03 -1.02 3.06 0 0 Z " fill="#FFFCF2" transform="translate(124,47)"/>
<path d="M0 0 C0.78375 0.804375 1.5675 1.60875 2.375 2.4375 C4.71982856 4.98690417 4.71982856 4.98690417 7 6 C8.99896911 5.68236347 8.99896911 5.68236347 11.125 5.0625 C12.21167969 4.77052734 12.21167969 4.77052734 13.3203125 4.47265625 C13.87460938 4.31667969 14.42890625 4.16070312 15 4 C14.29875 5.0725 13.5975 6.145 12.875 7.25 C11.74850382 9.1324217 11.74850382 9.1324217 11 11 C11.5 13.25 11.5 13.25 13 15 C13.66 16.32 14.32 17.64 15 19 C12.03 18.67 9.06 18.34 6 18 C5.195625 19.155 4.39125 20.31 3.5625 21.5 C2.73616038 22.68653894 1.88791631 23.8588092 1 25 C0.67 25 0.34 25 0 25 C0 21.7 0 18.4 0 15 C-2.64 14.67 -5.28 14.34 -8 14 C-8 13.34 -8 12.68 -8 12 C-5.09399739 10.74335022 -3.20395416 10 0 10 C0 6.7 0 3.4 0 0 Z " fill="#EDF4FB" transform="translate(178,169)"/>
<path d="M0 0 C0.33 0 0.66 0 1 0 C1 3.3 1 6.6 1 10 C3.31 10.66 5.62 11.32 8 12 C8 12.66 8 13.32 8 14 C5.69 14.33 3.38 14.66 1 15 C1 18.3 1 21.6 1 25 C-1.33524782 22.74259377 -3.18705073 20.7194239 -5 18 C-7.97 18.33 -10.94 18.66 -14 19 C-13.525625 18.236875 -13.05125 17.47375 -12.5625 16.6875 C-10.89893903 14.03589452 -10.89893903 14.03589452 -10 11 C-10.7460698 9.1197899 -10.7460698 9.1197899 -11.9375 7.3125 C-12.9584375 5.6728125 -12.9584375 5.6728125 -14 4 C-10.7 4.99 -7.4 5.98 -4 7 C-3.34 5.68 -2.68 4.36 -2 3 C-1.34 2.01 -0.68 1.02 0 0 Z " fill="#F0F6FC" transform="translate(71,169)"/>
<path d="M0 0 C3 3 3 3 4 7 C7.3 6.67 10.6 6.34 14 6 C12.35 7.98 10.7 9.96 9 12 C9.4640625 13.11375 9.4640625 13.11375 9.9375 14.25 C10.81160747 16.5123958 11.44256673 18.64974079 12 21 C11.41992188 20.72542969 10.83984375 20.45085937 10.2421875 20.16796875 C7.78236818 19.14913269 5.64142381 18.36936983 3 18 C0.29541761 19.27852986 -0.94728989 20.73675553 -3 23 C-2.505 18.545 -2.505 18.545 -2 14 C-2.763125 13.855625 -3.52625 13.71125 -4.3125 13.5625 C-7 13 -7 13 -10 12 C-10 11.34 -10 10.68 -10 10 C-5.545 9.505 -5.545 9.505 -1 9 C-0.67 6.03 -0.34 3.06 0 0 Z " fill="#F2F7FC" transform="translate(144,180)"/>
<path d="M0 0 C0.33 0 0.66 0 1 0 C1.33 2.97 1.66 5.94 2 9 C4.64 9.33 7.28 9.66 10 10 C10 10.66 10 11.32 10 12 C7.35261084 13.4606285 6.10551666 14 3 14 C3.33 16.97 3.66 19.94 4 23 C3.13375 22.13375 2.2675 21.2675 1.375 20.375 C-0.21782896 18.95002769 -0.21782896 18.95002769 -2 18 C-5.21316523 18.48762261 -5.21316523 18.48762261 -8 20 C-8.99 20.33 -9.98 20.66 -11 21 C-10.67 20.0925 -10.34 19.185 -10 18.25 C-8.80394277 14.92954193 -8.80394277 14.92954193 -9 11 C-10.91859167 8.26780807 -10.91859167 8.26780807 -13 6 C-9.7 6.33 -6.4 6.66 -3 7 C-2.690625 6.030625 -2.38125 5.06125 -2.0625 4.0625 C-1 1 -1 1 0 0 Z " fill="#F4F8FD" transform="translate(105,180)"/>
<path d="M0 0 C5.38422078 -0.27377394 8.54453408 -0.37535297 13 3 C14 4 14 4 14.25 7.375 C14 11 14 11 12.6875 12.875 C9.75520708 14.82986195 7.23175012 15.11855328 3.8125 15.0625 C1.9253125 15.0315625 1.9253125 15.0315625 0 15 C0 10.05 0 5.1 0 0 Z " fill="#0970D3" transform="translate(73,114)"/>
<path d="M0 0 C0.66 0 1.32 0 2 0 C2.33 1.98 2.66 3.96 3 6 C5.64 6 8.28 6 11 6 C9.71034824 7.37562854 8.37310707 8.70766393 7 10 C6.34 10 5.68 10 5 10 C5.33 10.598125 5.66 11.19625 6 11.8125 C7 14 7 14 7 17 C5.88625 16.4740625 5.88625 16.4740625 4.75 15.9375 C1.80084393 14.93210589 0.84541832 14.95667995 -2 16 C-2.99 16.33 -3.98 16.66 -5 17 C-4.125 12.25 -4.125 12.25 -3 10 C-3.804375 9.71125 -4.60875 9.4225 -5.4375 9.125 C-8 8 -8 8 -9 6 C-6.36 6 -3.72 6 -1 6 C-0.67 4.02 -0.34 2.04 0 0 Z " fill="#FFFAEB" transform="translate(181,50)"/>
<path d="M0 0 C0.66 0 1.32 0 2 0 C2.33 1.98 2.66 3.96 3 6 C5.64 6 8.28 6 11 6 C9.71034824 7.37562854 8.37310707 8.70766393 7 10 C6.34 10 5.68 10 5 10 C5.33 10.598125 5.66 11.19625 6 11.8125 C7 14 7 14 7 17 C6.1646875 16.4740625 6.1646875 16.4740625 5.3125 15.9375 C1.55681863 14.41492647 -1.2832512 15.76108373 -5 17 C-4.125 12.25 -4.125 12.25 -3 10 C-3.804375 9.71125 -4.60875 9.4225 -5.4375 9.125 C-8 8 -8 8 -9 6 C-6.36 6 -3.72 6 -1 6 C-0.67 4.02 -0.34 2.04 0 0 Z " fill="#FFFAEB" transform="translate(67,50)"/>
<path d="M0 0 C0.66 0 1.32 0 2 0 C2.33 1.98 2.66 3.96 3 6 C5.64 6 8.28 6 11 6 C9.71034824 7.37562854 8.37310707 8.70766393 7 10 C6.34 10 5.68 10 5 10 C5.66 12.31 6.32 14.62 7 17 C5.88625 16.4740625 5.88625 16.4740625 4.75 15.9375 C1.80084393 14.93210589 0.84541832 14.95667995 -2 16 C-2.99 16.33 -3.98 16.66 -5 17 C-4.125 12.25 -4.125 12.25 -3 10 C-3.804375 9.71125 -4.60875 9.4225 -5.4375 9.125 C-8 8 -8 8 -9 6 C-6.36 6 -3.72 6 -1 6 C-0.67 4.02 -0.34 2.04 0 0 Z " fill="#FFFAEC" transform="translate(94,50)"/>
<path d="M0 0 C0.66 0 1.32 0 2 0 C2.33 1.98 2.66 3.96 3 6 C5.64 6 8.28 6 11 6 C9.71034824 7.37562854 8.37310707 8.70766393 7 10 C6.34 10 5.68 10 5 10 C5.33 10.598125 5.66 11.19625 6 11.8125 C7 14 7 14 7 17 C6.1646875 16.4740625 6.1646875 16.4740625 5.3125 15.9375 C1.55681863 14.41492647 -1.2832512 15.76108373 -5 17 C-4.34 14.69 -3.68 12.38 -3 10 C-3.804375 9.71125 -4.60875 9.4225 -5.4375 9.125 C-8 8 -8 8 -9 6 C-6.36 6 -3.72 6 -1 6 C-0.67 4.02 -0.34 2.04 0 0 Z " fill="#FFFAED" transform="translate(154,50)"/>
</svg>
