<svg xmlns="http://www.w3.org/2000/svg" xmlns:xlink="http://www.w3.org/1999/xlink" width="180" height="210" viewBox="20 25 180 210" role="img" aria-label="Lambang PMII">
  <defs>
    <path id="pmii-star" d="M0,-1 L0.2235,-0.3074 L0.9511,-0.309 L0.3633,0.1174 L0.5878,0.809 L0,0.38 L-0.5878,0.809 L-0.3633,0.1174 L-0.9511,-0.309 L-0.2235,-0.3074 Z"/>
  </defs>

  <path d="M35,68 C35,50 55,42 110,42 C165,42 185,50 185,68 L185,120 C185,175 150,205 110,225 C70,205 35,175 35,120 Z"
        fill="#1C63D9" stroke="#12285C" stroke-width="3"/>

  <path d="M35,55 a15,15 0 0,1 30,0 a15,15 0 0,1 30,0 a15,15 0 0,1 30,0 a15,15 0 0,1 30,0 a15,15 0 0,1 30,0 L185,72 L35,72 Z"
        fill="#FFC90E" stroke="#12285C" stroke-width="3" stroke-linejoin="round"/>

  <use href="#pmii-star" xlink:href="#pmii-star" transform="translate(50,44) scale(8)" fill="#FFFFFF"/>
  <use href="#pmii-star" xlink:href="#pmii-star" transform="translate(80,40) scale(8)" fill="#FFFFFF"/>
  <use href="#pmii-star" xlink:href="#pmii-star" transform="translate(110,38) scale(8)" fill="#FFFFFF"/>
  <use href="#pmii-star" xlink:href="#pmii-star" transform="translate(140,40) scale(8)" fill="#FFFFFF"/>
  <use href="#pmii-star" xlink:href="#pmii-star" transform="translate(170,44) scale(8)" fill="#FFFFFF"/>

  <text x="110" y="128" text-anchor="middle" font-family="Georgia, 'Times New Roman', serif" font-weight="700" font-size="46" fill="#3E2A86">PMII</text>

  <use href="#pmii-star" xlink:href="#pmii-star" transform="translate(66,188) scale(7)" fill="#FFFFFF"/>
  <use href="#pmii-star" xlink:href="#pmii-star" transform="translate(88,196) scale(7)" fill="#FFFFFF"/>
  <use href="#pmii-star" xlink:href="#pmii-star" transform="translate(110,199) scale(7)" fill="#FFFFFF"/>
  <use href="#pmii-star" xlink:href="#pmii-star" transform="translate(132,196) scale(7)" fill="#FFFFFF"/>
  <use href="#pmii-star" xlink:href="#pmii-star" transform="translate(154,188) scale(7)" fill="#FFFFFF"/>
</svg>
